<svg width="17" height="20" viewBox="0 0 17 20" fill="none" xmlns="http://www.w3.org/2000/svg">
<path d="M9.87584 0C4.42098 0 0 4.47656 0 10C0 15.5234 4.42098 20 9.87584 20C12.53 20 14.9411 18.9375 16.7156 17.2109C16.9973 16.9375 17.0783 16.5117 16.9201 16.1523C16.7619 15.793 16.3916 15.5703 16.002 15.6016C15.8129 15.6172 15.6239 15.625 15.431 15.625C11.5115 15.625 8.33274 12.4062 8.33274 8.4375C8.33274 5.62109 9.93371 3.17969 12.2715 2C12.6226 1.82422 12.8232 1.44141 12.7769 1.04688C12.7306 0.652344 12.4451 0.332031 12.0632 0.246094C11.3572 0.0859376 10.6242 0 9.87584 0Z" fill="#B4B2B2"/>
</svg>
