<svg width="15" height="20" viewBox="0 0 15 20" fill="none" xmlns="http://www.w3.org/2000/svg">
<path d="M11.3436 0.224871C11.742 0.541028 11.8893 1.11452 11.7085 1.61449L9.08363 8.8236H13.9283C14.3802 8.8236 14.782 9.13241 14.936 9.59929C15.09 10.0662 14.9595 10.5882 14.6146 10.9044L4.97222 19.7273C4.59389 20.0729 4.05486 20.0913 3.65644 19.7751C3.25802 19.459 3.11071 18.8855 3.2915 18.3855L5.91637 11.1764H1.07174C0.619754 11.1764 0.217988 10.8676 0.063978 10.4007C-0.0900324 9.93383 0.0405416 9.4118 0.385391 9.09565L10.0278 0.272662C10.4061 -0.0729045 10.9451 -0.0912859 11.3436 0.224871Z" fill="#8BB493"/>
</svg>
